<svg width="246" height="36" viewBox="0 0 246 36" fill="none" xmlns="http://www.w3.org/2000/svg">
<path d="M10.944 7.736H0.192V1.4H29.472V7.736H18.72V35H10.944V7.736ZM59.6719 28.76V35H33.6559V1.4H59.0479V7.64H41.3839V14.936H56.9839V20.984H41.3839V28.76H59.6719ZM81.8453 35.576C78.4213 35.576 75.3173 34.84 72.5333 33.368C69.7813 31.864 67.6053 29.8 66.0053 27.176C64.4373 24.52 63.6533 21.528 63.6533 18.2C63.6533 14.872 64.4373 11.896 66.0053 9.272C67.6053 6.616 69.7813 4.552 72.5333 3.08C75.3173 1.576 78.4373 0.823999 81.8933 0.823999C84.8053 0.823999 87.4293 1.336 89.7653 2.36C92.1333 3.384 94.1173 4.856 95.7173 6.776L90.7253 11.384C88.4533 8.76 85.6373 7.448 82.2773 7.448C80.1973 7.448 78.3413 7.912 76.7093 8.84C75.0773 9.736 73.7973 11 72.8693 12.632C71.9733 14.264 71.5253 16.12 71.5253 18.2C71.5253 20.28 71.9733 22.136 72.8693 23.768C73.7973 25.4 75.0773 26.68 76.7093 27.608C78.3413 28.504 80.1973 28.952 82.2773 28.952C85.6373 28.952 88.4533 27.624 90.7253 24.968L95.7173 29.576C94.1173 31.528 92.1333 33.016 89.7653 34.04C87.3973 35.064 84.7573 35.576 81.8453 35.576ZM131.784 1.4V35H124.008V21.224H108.744V35H100.968V1.4H108.744V14.648H124.008V1.4H131.784Z" fill="#3987E6"/>
<path d="M147.51 7.64V16.52H163.062V22.76H147.51V35H139.734V1.4H165.126V7.64H147.51ZM170.39 1.4H178.166V28.664H195.014V35H170.39V1.4ZM199.359 1.4H207.135V35H199.359V1.4ZM236.277 35L228.165 23.336L220.197 35H211.269L223.701 17.912L211.893 1.4H220.725L228.453 12.296L236.037 1.4H244.437L232.725 17.624L245.253 35H236.277Z" fill="#F3F1F6"/>
</svg>
